# xmcd
#
# Track frame offsets:
#	150
#	19010
#	43764
#	67619
#	101415
#	135966
#
# Disc length: 2686 seconds
#
# Revision: 1
# Processed by: cddbd v1.5.1PL2 Copyright (c) Steve Scherf et al.
# Submitted via: EasyCDDAExtractor 9.0.0.1
#
DISCID=3d0a7c06
DTITLE=Whitesnake - Hammersmith Odeon London 24-06-80 Disc 1
DYEAR=1980
DGENRE=Hard Rock
TTITLE0=Come On
TTITLE1=Sweet Talker
TTITLE2=Walking In The Shadows Of The Blues
TTITLE3=Ain't Gonna Cry No More
TTITLE4=Lovehunter
TTITLE5=Mistreated
EXTD=
EXTT0=
EXTT1=
EXTT2=
EXTT3=
EXTT4=
EXTT5=
PLAYORDER=
